# xmcd
#
# Track frame offsets: 
#        150
#        10032
#        24381
#        34005
#        42659
#        52532
#        67279
#        77929
#        96273
#        109147
#        127272
#        140779
#        160639
#        170047
#        180727
#        191009
#        202368
#        213496
#        224193
#        242155
#        254255
#        265260
#        274384
#        288249
#        298364
#        315109
#        327905
#        340195
#
# Disc length: 4720 seconds
#
# Revision: 2
# Processed by: cddbd v1.5.2PL0 Copyright (c) Steve Scherf et al.
# Submitted via: ExactAudioCopyFreeDBPlugin 1.0
#
DISCID=c5126e1c
DTITLE=Waylon Jennings - The Journey - Six Strings Away - Vol. 3
DYEAR=1999
DGENRE=Country
TTITLE0=She Comes Runnning
TTITLE1=No Regrets
TTITLE2=Rock, Salt And Nails
TTITLE3=Sick And Tired
TTITLE4=It Ain't Easy
TTITLE5=Woman You Need A Man
TTITLE6=Marriage On The Rocks
TTITLE7=To Beat The Devil
TTITLE8=Mississippi Woman
TTITLE9=Ned Kelly
TTITLE10=Shadow Of The Gallows
TTITLE11=Lonigan's Widow
TTITLE12=Ranchin' In The Evening
TTITLE13=Blame It On The Kellys
TTITLE14=Pleasure Of A Sunday Afternoon
TTITLE15=Big D
TTITLE16=Gone To Denver
TTITLE17=The Taker
TTITLE18=Bridge Over Troubled Water (& Jessi Colter)
TTITLE19=What About You
TTITLE20=Thanks
TTITLE21=You'll Look For Me
TTITLE22=Tomorrow Night In Baltimore
TTITLE23=One Of My Bad Habits
TTITLE24=Suspicious Minds (& Jessi Colter)
TTITLE25=Sweetheart (& Jessi Colter)
TTITLE26=I Knew You'd Be Leavin'
TTITLE27=(Don't Let The Sun Set On You) Tulsa
EXTD=
EXTT0=
EXTT1=
EXTT2=
EXTT3=
EXTT4=
EXTT5=
EXTT6=
EXTT7=
EXTT8=
EXTT9=
EXTT10=
EXTT11=
EXTT12=
EXTT13=
EXTT14=
EXTT15=
EXTT16=
EXTT17=
EXTT18=
EXTT19=
EXTT20=
EXTT21=
EXTT22=
EXTT23=
EXTT24=
EXTT25=
EXTT26=
EXTT27=
PLAYORDER=
